<?xml version="1.0" encoding="utf-8"?>
<!-- Generator: Adobe Illustrator 26.0.1, SVG Export Plug-In . SVG Version: 6.00 Build 0)  -->
<svg version="1.1" id="Layer_1" xmlns="http://www.w3.org/2000/svg" xmlns:xlink="http://www.w3.org/1999/xlink" x="0px" y="0px"
	 viewBox="0 0 140.3 25" style="enable-background:new 0 0 140.3 25;" xml:space="preserve">
<g>
	<path d="M19.8,16.6c-0.2,2.6-1.2,4.7-2.9,6.2c-1.7,1.5-4,2.3-6.9,2.3c-3.1,0-5.6-1.1-7.4-3.2S0,16.9,0,13.2v-1.5
		c0-2.3,0.4-4.4,1.2-6.2s2-3.2,3.5-4.1S8.1,0,10.1,0c2.8,0,5.1,0.8,6.8,2.3c1.7,1.5,2.7,3.6,3,6.3h-5c-0.1-1.6-0.6-2.7-1.3-3.4
		c-0.8-0.7-1.9-1.1-3.4-1.1c-1.7,0-2.9,0.6-3.8,1.8S5.1,9,5.1,11.5v1.8c0,2.6,0.4,4.6,1.2,5.8c0.8,1.2,2.1,1.8,3.8,1.8
		c1.5,0,2.7-0.4,3.5-1.1c0.8-0.7,1.2-1.8,1.3-3.3H19.8z"/>
	<path d="M33.3,24.7c-0.2-0.4-0.4-1-0.5-1.6c-1.2,1.3-2.7,2-4.6,2c-1.8,0-3.2-0.5-4.4-1.5c-1.2-1-1.7-2.3-1.7-3.9
		c0-1.9,0.7-3.4,2.1-4.4c1.4-1,3.5-1.5,6.2-1.6h2.2v-1c0-0.8-0.2-1.5-0.6-2c-0.4-0.5-1.1-0.8-2-0.8c-0.8,0-1.5,0.2-1.9,0.6
		s-0.7,0.9-0.7,1.6h-4.8c0-1,0.3-2,1-2.9C24.1,8.2,25,7.5,26.2,7s2.5-0.8,4-0.8c2.2,0,4,0.6,5.3,1.7s2,2.7,2,4.7v7.8
		c0,1.7,0.3,3,0.7,3.9v0.3H33.3z M29.3,21.3c0.7,0,1.4-0.2,2-0.5s1-0.7,1.3-1.3v-3.1h-1.8c-2.4,0-3.7,0.8-3.9,2.5l0,0.3
		c0,0.6,0.2,1.1,0.6,1.5S28.6,21.3,29.3,21.3z"/>
	<path d="M51.3,11.1C50.7,11,50.1,11,49.6,11c-1.8,0-3,0.6-3.6,1.9v11.8h-4.8V6.6h4.6l0.1,2.2c1-1.7,2.3-2.5,4-2.5
		c0.5,0,1,0.1,1.5,0.2L51.3,11.1z"/>
	<path d="M63.6,24.7c-0.2-0.4-0.4-1-0.5-1.6c-1.2,1.3-2.7,2-4.6,2c-1.8,0-3.2-0.5-4.4-1.5c-1.2-1-1.7-2.3-1.7-3.9
		c0-1.9,0.7-3.4,2.1-4.4s3.5-1.5,6.2-1.6h2.2v-1c0-0.8-0.2-1.5-0.6-2s-1.1-0.8-2-0.8c-0.8,0-1.5,0.2-1.9,0.6
		c-0.5,0.4-0.7,0.9-0.7,1.6h-4.8c0-1,0.3-2,1-2.9c0.6-0.9,1.6-1.6,2.7-2.1c1.2-0.5,2.5-0.8,4-0.8c2.2,0,4,0.6,5.3,1.7
		c1.3,1.1,2,2.7,2,4.7v7.8c0,1.7,0.3,3,0.7,3.9v0.3H63.6z M59.6,21.3c0.7,0,1.4-0.2,2-0.5c0.6-0.3,1-0.7,1.3-1.3v-3.1h-1.8
		c-2.4,0-3.7,0.8-3.9,2.5l0,0.3c0,0.6,0.2,1.1,0.6,1.5C58.3,21.1,58.9,21.3,59.6,21.3z"/>
	<path d="M78,18.8l3.4-12.2h5l-6.1,18.1h-4.6L69.6,6.6h5L78,18.8z"/>
	<path d="M98.8,24.7c-0.2-0.4-0.4-1-0.5-1.6c-1.2,1.3-2.7,2-4.6,2c-1.8,0-3.2-0.5-4.4-1.5c-1.2-1-1.7-2.3-1.7-3.9
		c0-1.9,0.7-3.4,2.1-4.4c1.4-1,3.5-1.5,6.2-1.6h2.2v-1c0-0.8-0.2-1.5-0.6-2c-0.4-0.5-1.1-0.8-2-0.8c-0.8,0-1.5,0.2-1.9,0.6
		s-0.7,0.9-0.7,1.6H88c0-1,0.3-2,1-2.9c0.6-0.9,1.6-1.6,2.7-2.1c1.2-0.5,2.5-0.8,4-0.8c2.2,0,4,0.6,5.3,1.7s2,2.7,2,4.7v7.8
		c0,1.7,0.3,3,0.7,3.9v0.3H98.8z M94.8,21.3c0.7,0,1.4-0.2,2-0.5c0.6-0.3,1-0.7,1.3-1.3v-3.1h-1.8c-2.4,0-3.7,0.8-3.9,2.5l0,0.3
		c0,0.6,0.2,1.1,0.6,1.5C93.5,21.1,94,21.3,94.8,21.3z"/>
	<path d="M111.1,6.6l0.2,2.1c1.3-1.6,3-2.4,5.2-2.4c1.9,0,3.3,0.6,4.3,1.7s1.4,2.8,1.4,5v11.7h-4.8V13.1c0-1-0.2-1.8-0.7-2.2
		c-0.4-0.5-1.2-0.7-2.2-0.7c-1.4,0-2.4,0.6-3.1,1.7v12.8h-4.8V6.6H111.1z"/>
	<path d="M135.6,19.7c0-0.6-0.3-1.1-0.9-1.4c-0.6-0.3-1.5-0.6-2.8-0.9c-4.3-0.9-6.5-2.7-6.5-5.5c0-1.6,0.7-2.9,2-4
		c1.3-1.1,3.1-1.6,5.2-1.6c2.3,0,4.1,0.5,5.5,1.6c1.4,1.1,2.1,2.5,2.1,4.2h-4.8c0-0.7-0.2-1.3-0.7-1.7c-0.4-0.5-1.1-0.7-2.1-0.7
		c-0.8,0-1.4,0.2-1.9,0.6c-0.4,0.4-0.7,0.8-0.7,1.4c0,0.5,0.3,1,0.8,1.3c0.5,0.3,1.4,0.6,2.6,0.9c1.2,0.2,2.2,0.5,3,0.8
		c2.6,0.9,3.8,2.6,3.8,4.9c0,1.6-0.7,3-2.1,4s-3.2,1.5-5.5,1.5c-1.5,0-2.9-0.3-4-0.8c-1.2-0.5-2.1-1.3-2.8-2.2s-1-2-1-3h4.6
		c0,0.9,0.4,1.5,1,2s1.4,0.7,2.4,0.7c0.9,0,1.6-0.2,2.1-0.5C135.4,20.7,135.6,20.2,135.6,19.7z"/>
</g>
</svg>
