<?xml version="1.0" encoding="utf-8"?>
<!-- Generator: Adobe Illustrator 26.0.1, SVG Export Plug-In . SVG Version: 6.00 Build 0)  -->
<svg version="1.1" id="Layer_1" xmlns="http://www.w3.org/2000/svg" xmlns:xlink="http://www.w3.org/1999/xlink" x="0px" y="0px"
	 viewBox="0 0 97.1 22.1" style="enable-background:new 0 0 97.1 22.1;" xml:space="preserve">
<g>
	<path d="M14.6,15.9c0,0.4-0.1,0.8-0.3,1.4c-0.5,1.3-1.4,2.4-2.8,3.1c-1.3,0.7-2.6,1-4.1,1c-2.5,0-4.4-0.9-5.7-2.8
		C0.6,17,0,14.9,0,12.3c0-2.1,0.3-4.1,1-6c0.7-2.1,1.8-3.8,3.3-5C5.4,0.5,6.6,0,7.7,0c1.7,0,3,0.7,3.9,2.2c0.7,1.2,1.1,2.7,1.1,4.5
		c0,0.8-0.2,1.9-0.6,3.1c-0.5,1.5-1.1,2.3-1.7,2.3c-0.7,0-1.2-0.4-1.6-1.3c0.2-0.1,0.5-0.4,0.8-0.7c0.4-0.4,0.6-1.3,0.6-2.6
		c0-1.2-0.1-2.3-0.4-3.1c-0.4-1.3-1.1-2-2-2c-0.6,0-1.3,0.4-2.1,1.2C5.2,4.3,4.7,5,4.3,5.7c-1,1.9-1.5,4.3-1.5,7.2
		c0,4.2,1.6,6.2,4.7,6.2c1.3,0,2.4-0.4,3.2-1.1c0.3-0.3,0.8-1,1.4-2.1c0.4-0.8,0.9-1.2,1.4-1.2c0.3,0,0.6,0.1,0.8,0.4
		C14.5,15.3,14.6,15.6,14.6,15.9z"/>
	<path d="M27.6,15.7c0,2.6-0.1,4.4-0.2,5.5c-0.1,0.6-0.5,0.9-1.3,0.9c-1.1,0-1.6-0.6-1.5-1.7c-1,0.5-2,0.7-3.1,0.7c-1,0-2-0.3-3-0.8
		c-1.1-0.6-1.7-1.4-1.7-2.4c0-0.9,0.6-1.8,1.9-2.6c1.2-0.7,2.2-1.1,3.3-1.1h2.5v-0.7c0-2.1-0.6-3.1-1.9-3.1c-1.6,0-2.4,0.7-2.4,2.2
		c0,0.5-0.3,0.7-0.8,0.7c-0.3,0-0.7-0.2-1.1-0.5c-0.4-0.3-0.6-0.6-0.6-1c0-1.1,0.4-2,1.2-2.8c0.8-0.7,1.8-1.1,2.9-1.1
		C25.8,8.1,27.6,10.6,27.6,15.7z M24.6,16.8c0-0.4-0.3-0.6-0.9-0.6c-2.5,0-3.8,0.6-3.8,1.8c0,0.6,0.5,1,1.6,1c0.7,0,1.3-0.2,1.9-0.6
		C24.2,17.9,24.6,17.4,24.6,16.8z"/>
	<path d="M37.9,10.5c0,0.1,0,0.4-0.1,0.7c-0.4,0.6-0.9,0.9-1.3,0.9c-0.4,0-0.7-0.2-1-0.7c0-0.9-0.4-1.4-1-1.4c-0.4,0-0.8,1-1.3,2.9
		c-0.2,0.8-0.4,2-0.4,3.5c0,1.4,0.1,2.3,0.2,2.6c0.1,0.4,0.2,0.6,0.2,0.8c0,0.3-0.2,0.6-0.5,0.8s-0.6,0.3-1,0.3
		c-1.1,0-1.6-0.5-1.6-1.5c0-0.1,0-0.2,0.1-0.4c0-0.2,0.1-0.3,0.1-0.4c0-1-0.1-2.5-0.2-4.5S30,10.5,30,9.5c0-0.9,0.5-1.4,1.6-1.4
		c0.6,0,1.1,0.2,1.3,0.6c0.6-0.6,1.2-0.9,1.9-0.9c0.5,0,0.9,0.1,1.4,0.4c0.3,0.2,0.6,0.5,1.1,1C37.7,9.8,37.9,10.2,37.9,10.5z"/>
	<path d="M48.9,15.7c0,2.6-0.1,4.4-0.2,5.5c-0.1,0.6-0.5,0.9-1.3,0.9c-1.1,0-1.6-0.6-1.5-1.7c-1,0.5-2,0.7-3.1,0.7c-1,0-2-0.3-3-0.8
		c-1.1-0.6-1.7-1.4-1.7-2.4c0-0.9,0.6-1.8,1.9-2.6c1.2-0.7,2.2-1.1,3.3-1.1h2.5v-0.7c0-2.1-0.6-3.1-1.9-3.1c-1.6,0-2.4,0.7-2.4,2.2
		c0,0.5-0.3,0.7-0.8,0.7c-0.3,0-0.7-0.2-1.1-0.5c-0.4-0.3-0.6-0.6-0.6-1c0-1.1,0.4-2,1.2-2.8c0.8-0.7,1.8-1.1,2.9-1.1
		C47,8.1,48.9,10.6,48.9,15.7z M45.9,16.8c0-0.4-0.3-0.6-0.9-0.6c-2.5,0-3.8,0.6-3.8,1.8c0,0.6,0.5,1,1.6,1c0.7,0,1.3-0.2,1.9-0.6
		C45.5,17.9,45.9,17.4,45.9,16.8z"/>
	<path d="M60.7,9.3c0,1.4-0.5,3.6-1.4,6.6c-1.1,3.4-2.1,5.1-3.1,5.1c-1.5,0-2.8-1.4-3.9-4.3c-0.7-1.8-1.3-3.9-1.7-6.2
		c-0.1-0.6-0.1-1-0.1-1.4c0-0.3,0.1-0.6,0.4-0.9c0.3-0.2,0.6-0.4,0.9-0.4c0.4,0,1,0.3,1.8,0.9c-0.1,0.5-0.2,0.9-0.2,1.2
		c0,1.1,0.3,2.5,0.8,4.2c0.5,1.7,1.1,3,1.7,3.9v0.1c0.7,0,1.3-1.4,1.7-4.1C57.8,12.3,58,10.6,58,9c0-0.3,0.2-0.6,0.5-0.8
		s0.6-0.3,0.9-0.3C60.3,7.9,60.7,8.4,60.7,9.3z"/>
	<path d="M71.8,15.7c0,2.6-0.1,4.4-0.2,5.5c-0.1,0.6-0.5,0.9-1.3,0.9c-1.1,0-1.6-0.6-1.5-1.7c-1,0.5-2,0.7-3.1,0.7c-1,0-2-0.3-3-0.8
		C61.6,19.8,61,19,61,18c0-0.9,0.6-1.8,1.9-2.6c1.2-0.7,2.2-1.1,3.3-1.1h2.5v-0.7c0-2.1-0.6-3.1-1.9-3.1c-1.6,0-2.4,0.7-2.4,2.2
		c0,0.5-0.3,0.7-0.8,0.7c-0.3,0-0.7-0.2-1.1-0.5c-0.4-0.3-0.6-0.6-0.6-1c0-1.1,0.4-2,1.2-2.8c0.8-0.7,1.8-1.1,2.9-1.1
		C69.9,8.1,71.8,10.6,71.8,15.7z M68.8,16.8c0-0.4-0.3-0.6-0.9-0.6c-2.5,0-3.8,0.6-3.8,1.8c0,0.6,0.5,1,1.6,1c0.7,0,1.3-0.2,1.9-0.6
		C68.4,17.9,68.8,17.4,68.8,16.8z"/>
	<path d="M84.9,20.6c-0.3,0.5-0.7,0.7-1.1,0.7c-0.3,0-0.9-0.2-1.7-0.6v-0.4c0-0.4,0-1.1,0-2c0-0.9,0-1.5,0-1.9
		c0-4.3-0.6-6.4-1.9-6.4c-0.4,0-0.8,0.3-1.2,0.8c-1.4,1.7-2.1,3.8-2.1,6.2c0,0.3,0.1,0.8,0.2,1.5c0.1,0.7,0.2,1.2,0.2,1.5
		c0,0.3-0.1,0.5-0.4,0.7s-0.5,0.3-0.8,0.3c-1.2,0-1.8-0.8-1.8-2.3v-6.3c0-0.2,0-0.4,0.1-0.7c0-0.3,0.1-0.5,0.1-0.7
		c0-0.2,0-0.6-0.1-1c-0.1-0.5-0.1-0.8-0.1-1c0-0.3,0.2-0.6,0.6-0.9c0.4-0.3,0.7-0.4,1-0.4c0.4,0,0.9,0.3,1.4,0.8L77,9.7
		c0.7-1.2,1.7-1.8,2.7-1.8c0.7,0,1.4,0.2,2.2,0.7s1.4,1,1.7,1.6c0.8,1.5,1.2,3.5,1.2,6V20.6z"/>
	<path d="M97.1,17.8c0,0.9-0.4,1.8-1.2,2.5c-0.9,0.8-2.1,1.1-3.5,1.1c-0.6,0-1.3-0.1-2.1-0.4c-2.4-0.9-3.6-1.6-3.6-2.2
		c0-0.9,0.6-1.3,1.9-1.3c0.2,0,0.4,0,0.6,0c0.1,0.6,0.5,1.1,1.4,1.4c0.8,0.3,1.5,0.4,2.2,0.4c0.6,0,0.9-0.2,0.9-0.6
		c0-0.1,0-0.2,0-0.3s0-0.2,0-0.3s-0.4-0.2-1.1-0.5c-0.9-0.3-1.3-0.4-1.4-0.4c-2.3-1.4-3.4-3-3.4-4.9c0-1.2,0.3-2.2,1-3.2
		c0.7-1.1,1.7-1.6,2.8-1.6c0.8,0,1.8,0.3,2.8,1s1.7,1.3,1.9,2.1c0.2,0.5,0.2,1,0.2,1.3c0,0.4,0,0.7-0.1,0.9
		c-0.1,0.3-0.2,0.6-0.4,0.9c-0.4,0.3-0.8,0.4-1.1,0.4c-0.2,0-0.5-0.1-1-0.4C93.2,13.4,93,13.2,93,13c0-0.1,0.1-0.3,0.4-0.8
		c0.1-0.3,0.2-0.5,0.2-0.7c0-1.2-0.5-1.8-1.4-1.8c-0.6,0-1,0.4-1.3,1.1c-0.2,0.6-0.3,1.2-0.3,1.8c0,0.8,0.6,1.5,1.7,2.2
		c1,0.5,2.1,0.9,3.1,1.4C96.5,16.7,97.1,17.3,97.1,17.8z"/>
</g>
</svg>
